<svg width="1920" height="983" viewBox="0 0 1920 983" fill="none" xmlns="http://www.w3.org/2000/svg">
<g clip-path="url(#clip0_503_701)">
<path fill-rule="evenodd" clip-rule="evenodd" d="M1262.83 86.3793C1274.56 66.6832 1257.87 26.578 1251.91 7.49314C1240.14 -30.2495 1226.32 -66.8765 1212.94 -103.689C1199.56 -140.502 1186.07 -177.3 1175.15 -215.453C1168.05 -240.223 1159.27 -268.593 1161.25 -296.687C1165.46 -356.552 1234.93 -305.544 1254.59 -295.097C1304.61 -268.533 1359.5 -233.955 1419.29 -230.528C1454.98 -228.483 1480.15 -245.887 1495.26 -284.225C1500.19 -296.683 1502.47 -313.06 1513.81 -321.269C1525.92 -330.036 1541.57 -329.888 1553.91 -328.682C1598.91 -324.261 1640.33 -301.997 1678.63 -281.822C1719.96 -260.11 1759.88 -235.21 1799.66 -211.552C1816.52 -201.52 1838.52 -198.341 1858.14 -194.711C1883.86 -189.951 1909.91 -186.309 1935.86 -182.33C1992.93 -173.531 2051.99 -164.891 2103.31 -140.524C2135.46 -125.266 2166.21 -101.303 2174.22 -61.2143C2178.24 -41.0858 2172.81 -18.0153 2169.33 3.2839C2165.14 29.0251 2160.5 54.7694 2157.04 80.5055C2145.91 163.397 2147.83 252.09 2211.74 294.888C2221.41 301.361 2232.14 305.652 2242.24 311.311C2248.66 314.922 2253.16 320.161 2250.67 329.634C2244.41 353.404 2206.68 374.186 2189.44 385.662C2151.68 410.781 2112.75 433.047 2074.47 456.897C2049.16 472.667 2010.33 491.67 1993.5 519.2C1978.5 543.729 1994.65 577.675 2001.98 598.597C2008.85 618.192 2024.11 649.007 2011.72 673.028C2005.71 684.675 1994.08 690.326 1983.42 693.736C1964.76 699.684 1946.65 700.906 1928.04 709.299C1897.51 723.074 1864.33 747.336 1847.45 780.471C1835.75 803.431 1837.38 824.049 1842.19 845.716C1844.21 854.824 1846.22 861.613 1840.85 871.203C1832.33 886.437 1818.03 899.377 1805.75 910.865C1761.8 951.98 1712.89 987.886 1663.64 1019.25C1639.02 1034.93 1613.55 1050 1587.28 1060.2C1570.05 1066.92 1548.01 1073.98 1533.23 1065.08C1516.11 1054.79 1502.53 1036.37 1489.28 1020.73C1464.53 991.514 1441.14 960.88 1418.07 930.004C1364.71 858.588 1313.43 785.23 1264.22 709.929C1229.58 656.849 1193.93 603.111 1166.91 543.977C1161.67 532.402 1157.54 520.102 1154.6 507.243C1151.36 493.652 1143.26 483.576 1134.43 474.386C1079.63 417.352 999.769 387.874 928.932 356.917C910.955 349.055 892.971 341.206 875.335 332.668C860.175 325.329 840.718 318.717 830.111 304.715C809.202 277.137 857.706 250.941 877.838 240.489C948.721 203.685 1024.61 182.11 1097.73 157.472C1132.52 145.719 1167.43 134.122 1201.93 120.345C1219.88 113.192 1252.54 103.646 1262.83 86.3793Z" stroke="#6078F8" stroke-width="0.5"/>
<path fill-rule="evenodd" clip-rule="evenodd" d="M1277.01 90.0589C1278.51 62.6696 1268.47 35.7229 1261.15 11.6491C1250.64 -23.0025 1238.7 -56.9321 1227.46 -91.2141C1216.84 -123.631 1206.3 -156.295 1198.86 -190.323C1194.33 -211.074 1188.18 -236.331 1194.04 -259.476C1206.72 -309.651 1271.88 -261.726 1289.6 -252.596C1333.62 -229.886 1382.03 -201.652 1434.67 -200.456C1467.53 -199.71 1491.5 -216.821 1505.59 -252.102C1510.47 -264.308 1512.93 -275.756 1523.69 -284.347C1536.14 -294.292 1551.89 -295.696 1565.31 -295.3C1607.36 -294.064 1646.78 -275.484 1682.74 -258.127C1719.89 -240.195 1757.94 -220.426 1790.6 -197.591C1803.66 -188.463 1822.55 -184.37 1838.49 -180.356C1863.03 -174.187 1887.93 -169.113 1912.64 -163.464C1962.86 -151.995 2013.87 -139.366 2058.43 -114.642C2090.6 -96.7935 2119.91 -71.1506 2132.44 -32.5976C2145.12 6.48788 2135.37 49.4099 2129.64 92.3325C2119.7 166.524 2111.04 258.79 2162.45 306.612C2170.24 313.867 2179.44 317.997 2188.08 323.82C2192.52 326.81 2197.29 330.692 2196.31 337.604C2193.74 355.549 2161.47 371.785 2149.31 379.406C2115.72 400.467 2081.1 418.897 2047.12 438.931C2020.13 454.837 1988.15 471.308 1966.39 496.307C1939.98 526.644 1964.73 574.395 1964.18 606.596C1963.22 662.432 1903.67 658.794 1869.43 665.12C1830.12 672.379 1784.05 701.035 1785.98 749.972C1786.72 768.687 1792.74 783.198 1786.15 803.079C1775.84 834.172 1752.38 862.685 1731.11 886.768C1699.13 922.962 1663.04 956.083 1624.76 983.159C1597.34 1002.54 1553.3 1032.3 1527.01 1012.28C1509.3 998.827 1494.57 979.698 1480.13 961.932C1458.5 935.337 1438.07 907.554 1418.04 879.417C1371.76 814.541 1327.85 747.286 1286.97 677.761C1259.07 630.315 1198.84 468.72 1192.11 460.207C1172.06 434.832 1141.54 418.838 1113.89 404.29C1077.12 384.935 1038.59 368.894 1000.32 352.487C982.113 344.664 963.514 337.3 945.915 328.261C933.389 321.826 917.16 313.01 911.741 298.132C901.159 269.101 947.003 244.768 966.18 234.342C1024.95 202.366 1087.44 181.644 1148.21 158.582C1178.04 147.254 1208.11 136.116 1237.42 122.126C1249.24 116.473 1276.08 106.978 1277.01 90.0589Z" stroke="#6078F8" stroke-width="0.5"/>
<path fill-rule="evenodd" clip-rule="evenodd" d="M1297.89 87.8636C1292.86 28.2536 1270 -27.56 1255.11 -83.766C1247.64 -111.981 1240.34 -140.74 1237.34 -170.804C1235.77 -186.44 1233.92 -206.135 1241.41 -222.117C1261.46 -264.871 1320.44 -222.021 1339.99 -212.354C1377.8 -193.674 1419.85 -171.47 1464.88 -172.379C1492.39 -172.942 1514.61 -187.648 1527.16 -216.986C1532.73 -230.003 1536.29 -241.764 1547.61 -251.026C1559.09 -260.41 1573.09 -263.482 1585.93 -264.374C1622.85 -266.952 1658.64 -253.362 1690.51 -240.114C1727.87 -224.537 1763.64 -205.728 1797.52 -183.838C1827.21 -164.682 1863.88 -157.464 1897.74 -146.878C1942.61 -132.848 1987.46 -117.19 2026.77 -91.862C2057.81 -71.8523 2085.01 -44.8632 2099.56 -7.81078C2114.32 29.8879 2111.8 71.5224 2106.14 114.687C2097.59 179.94 2084.02 266.112 2121.63 315.446C2127.1 322.627 2133.61 326.966 2140.72 331.918C2144.18 334.322 2148.78 337.19 2147.82 342.837C2145.5 356.433 2116.79 368.243 2107.88 373.022C2079.46 388.279 2050.49 401.751 2021.9 416.481C1995.21 430.233 1966.76 444.181 1942.94 464.775C1905.02 497.581 1933.45 547.172 1908.87 585.375C1893.6 609.091 1864.19 615.007 1841.95 617.957C1814.57 621.57 1782.08 615.24 1756.65 636.571C1737.7 652.459 1741.53 670.631 1740.74 690.849C1739.4 725.107 1719.38 760.607 1699.99 789.544C1673.79 828.649 1641.47 864.884 1606.02 893.996C1589.95 907.194 1572.13 920.261 1553.52 926.823C1536.07 932.976 1524.63 930.363 1512.63 919.749C1475.91 887.246 1447.03 840.792 1418.88 797.882C1383.51 743.965 1350.32 687.965 1320.59 629.531C1300.32 589.683 1280.03 548.215 1268.39 502.997C1265.36 491.209 1262.53 478.679 1262.9 465.756C1263.15 456.029 1265.01 448.987 1260.58 440.682C1247.43 416.071 1216.96 402.131 1194.2 390.195C1157.82 371.101 1119.58 355.487 1081.71 339.362C1059.6 329.973 1015.77 315.897 1012.47 284.514C1009.62 257.418 1045.69 235.807 1064.23 224.582C1111.11 196.198 1161.21 176.668 1209.92 154.834C1232.25 144.827 1255.12 134.971 1276.52 121.786C1281.98 118.428 1289.91 114.399 1294.17 108.892C1299.03 102.571 1298.5 95.2016 1297.89 87.8636Z" stroke="#6078F8" stroke-width="0.5"/>
<path fill-rule="evenodd" clip-rule="evenodd" d="M1295.02 98.6568C1289.39 45.2059 1274.13 -5.09254 1265.04 -57.4073C1260.96 -80.8636 1257.21 -105.156 1258.35 -130.097C1258.96 -143.51 1260.81 -159.746 1269.88 -171.424C1295.91 -204.943 1345.15 -170.917 1367.11 -160.604C1399.71 -145.244 1436.9 -127.158 1475.78 -130.304C1501.25 -132.364 1519.24 -147.193 1530.52 -173.488C1542.61 -201.696 1561.96 -215.822 1588.85 -219.453C1622.56 -223.991 1655.75 -214.151 1685.35 -203.545C1720.99 -190.737 1754.92 -174.165 1786.73 -154.032C1817.66 -134.449 1851.9 -122.598 1885.57 -108.041C1930.2 -88.7358 1974.48 -65.8363 2008.53 -29.972C2038.18 1.25527 2057.26 42.2772 2061.16 90.3341C2065.25 140.503 2051.17 192.149 2048.3 243.203C2046.5 275.047 2045.04 317.72 2063.2 341.427C2069.25 349.334 2086.27 353.797 2070.65 365.415C2061.73 372.061 2050.29 375.725 2040.6 379.717C2024.94 386.17 2009.18 392.129 1993.47 398.334C1959.98 411.562 1924.84 424.513 1893.34 445.078C1853.67 470.962 1863.12 514.908 1837.65 550.022C1823.95 568.92 1803.02 578 1783.48 583.273C1770.84 586.694 1758.11 588.59 1745.49 589.909C1732.31 591.289 1718.44 590.04 1705.21 594.118C1686.37 599.912 1682.33 617.74 1674.68 635.265C1661.24 666.067 1644.62 695.574 1625.2 723.118C1601.41 756.882 1573.55 789.573 1541.54 814.016C1529.08 823.535 1514.85 833.011 1500.51 835.792C1486.16 838.572 1476.87 832.211 1467.72 823.276C1440.54 796.804 1419.38 760.482 1399.23 726.003C1374.01 682.845 1350.99 637.712 1331.52 590.41C1318.09 557.758 1305.45 523.607 1299.84 486.911C1298.22 476.234 1297.18 465.225 1297.75 453.973C1298.14 446.255 1301 437.711 1299.11 430.601C1293.2 408.391 1262.33 395.415 1245.26 386.24C1211.18 367.929 1174.05 355.893 1139.87 337.853C1121.22 328.01 1091.43 313.545 1089.43 286.837C1087.55 261.727 1115.52 240.762 1133.17 228.263C1167.87 203.682 1205.41 185.765 1241.69 165.331C1256.61 156.919 1272.58 148.334 1286.04 136.576C1298.02 126.092 1296.46 112.359 1295.02 98.6568Z" stroke="#6078F8" stroke-width="0.5"/>
<path fill-rule="evenodd" clip-rule="evenodd" d="M1302.08 104.546C1299.44 58.9504 1290.08 14.2608 1287.6 -31.9568C1286.15 -59.0192 1283.18 -104.835 1309.54 -125.919C1338.5 -149.098 1377.47 -126.787 1401.15 -115.824C1429.35 -102.776 1462.78 -88.0004 1496.63 -93.0014C1507.33 -94.5805 1518.11 -98.7016 1526.87 -107.407C1536.23 -116.722 1538.98 -128.15 1545.19 -139.378C1558.22 -162.933 1580.64 -174.657 1603.23 -178.386C1635.16 -183.663 1666.69 -176.285 1695.21 -167.213C1727.5 -156.906 1758.22 -142.928 1786.94 -125.481C1814.4 -108.827 1842.08 -93.2054 1870.15 -77.5066C1906.87 -56.998 1942.31 -33.1938 1970.26 -0.529672C1997.78 31.6554 2016.15 72.0094 2021.7 118.474C2027.11 163.811 2020.59 211.333 2011.63 258.35C2006.54 285.035 2000.51 325.855 2013.07 348.421C2018.65 358.46 2027.22 363.154 2010.47 370.479C1989.38 379.701 1966.23 383.357 1944.73 389.165C1913.71 397.552 1881.98 406.039 1851.77 420.019C1832.48 428.946 1819.13 440.835 1808.11 460.777C1799.72 475.973 1793.35 492.172 1783.13 506.348C1759.15 539.624 1722.07 550.04 1688.61 560.382C1667.08 567.031 1648.72 570.937 1629.79 587.421C1607.42 606.9 1588.31 631.24 1567.98 653.209C1545.65 677.332 1521.76 702.028 1494.6 718.771C1470.42 733.679 1450.98 735.204 1434.13 717.143C1407.82 688.979 1389.96 647.799 1374.21 610.162C1358.16 571.863 1344.19 531.241 1337.8 488.009C1334.35 464.666 1336.61 441.049 1335.3 417.408C1333.63 387.711 1296.39 376.201 1276.03 366.4C1242.25 350.131 1128.22 311.784 1180.65 245.573C1202.53 217.937 1234.43 199.459 1261.49 179.727C1272.71 171.535 1287.33 162.391 1295.93 150.444C1305.3 137.433 1302.87 118.266 1302.08 104.546Z" stroke="#6078F8" stroke-width="0.5"/>
<path fill-rule="evenodd" clip-rule="evenodd" d="M1312.58 114.502C1313.35 75.0435 1309.82 35.213 1314.4 -5.15609C1317.34 -31.3095 1324.6 -64.2573 1349.74 -78.6916C1378.12 -94.9792 1411.68 -82.5894 1435.69 -72.4114C1460.42 -61.9219 1489.27 -48.2673 1519.07 -55.6419C1528.56 -57.9953 1538.24 -63.0363 1544.89 -72.0428C1551.27 -80.6796 1554.3 -91.3319 1560.73 -100.169C1575.16 -120.015 1595.94 -131.022 1616.88 -135.477C1678.84 -148.66 1742.88 -121.39 1791.37 -93.5741C1815.64 -79.6479 1838.8 -62.2947 1861.84 -45.9845C1891.75 -24.8202 1920.08 -0.935811 1942.65 29.1571C1990.63 93.13 1998.78 175.966 1985.69 265.081C1981.57 293.131 1974.15 321.7 1977.98 348.533C1979.95 362.381 1974.28 368.073 1961.45 371.918C1941.4 377.924 1920.57 379.208 1900.51 382.222C1871.98 386.508 1842.9 390.784 1814.7 399.511C1795.27 405.527 1779.49 413.094 1765.27 431.085C1755.13 443.911 1747.04 458.326 1737.56 471.667C1719.55 497.008 1696.7 519.168 1671.06 533.757C1650.71 545.306 1629.44 554.135 1608.22 561.989C1580.62 572.228 1555.26 584.243 1529.24 600.443C1494.77 621.872 1438.16 665.591 1409.87 628.021C1378.67 586.576 1365.5 520.985 1363.73 464.035C1363.13 444.913 1366 423.625 1360.13 406.262C1351.33 380.293 1332.82 369.894 1311.45 357.143C1279.47 338.043 1204.91 304.755 1239.23 245.93C1252.83 222.625 1274.17 205.685 1291.46 185.799C1310.86 163.546 1312.08 141.408 1312.58 114.502Z" stroke="#6078F8" stroke-width="0.5"/>
<path fill-rule="evenodd" clip-rule="evenodd" d="M1323.01 124.873C1329.29 76.6564 1329.62 -8.57548 1383.58 -33.969C1412.09 -47.3932 1443.72 -39.8675 1469.03 -31.5051C1489.4 -24.796 1511.95 -13.3282 1535.86 -22.4247C1553.43 -29.1146 1560.09 -50.2159 1573.44 -63.7887C1589.99 -80.612 1610.54 -90.175 1631.16 -94.2454C1688.8 -105.624 1746.93 -84.8148 1793.16 -60.0428C1841.17 -34.3102 1886.12 7.26501 1917.64 54.2167C1956.93 112.767 1968.71 186.012 1960.39 264.801C1958.85 279.343 1956.65 293.893 1954.81 308.446C1953.59 318.211 1954.17 328.715 1951.98 338.447C1948.33 354.669 1936.4 362.56 1922.65 366.298C1902.85 371.685 1882.48 371.743 1862.88 372.938C1836.08 374.582 1809 375.738 1782.17 380.436C1764.12 383.608 1745.05 387.241 1730.08 402.553C1719.86 412.995 1711.51 425.537 1704.03 438.216C1688 465.404 1673.69 486.581 1648.45 505.136C1606.97 535.575 1558.8 556.409 1512.83 570.212C1476.76 581.044 1420.1 597.494 1398.05 562.51C1378.24 531.15 1382.2 486.945 1380.12 448.034C1379.1 429.117 1376.27 410.693 1370.01 393.91C1362.12 372.753 1350.91 359.13 1334.17 346.381C1305.98 324.922 1260.99 296.712 1278.19 246.953C1284.53 228.588 1296.64 212.892 1304.75 195.3C1315.5 172.057 1319.84 149.195 1323.01 124.873Z" stroke="#6078F8" stroke-width="0.5"/>
<path fill-rule="evenodd" clip-rule="evenodd" d="M1339.83 135.588C1353.05 86.6561 1369.07 24.6073 1420.1 4.72536C1444.82 -4.90705 1470.44 -3.20695 1493.89 0.656458C1510.69 3.41982 1533.18 14.7746 1551.45 3.21113C1564.88 -5.30585 1575.82 -21.6097 1589.19 -31.3468C1607.57 -44.736 1627.96 -52.611 1648.4 -56.0778C1701.68 -65.1174 1754.46 -49.2623 1798.22 -27.512C1893.29 19.7578 1950.95 132.894 1942.49 256.948C1939.97 293.929 1940.56 335.259 1899.81 350.099C1855.33 366.277 1807.98 357.928 1764.04 362.012C1747.26 363.566 1726.24 364.929 1710.44 376.508C1700.93 383.467 1693.65 394.984 1687.32 405.123C1671.16 430.937 1655.28 453.336 1632.03 472.507C1596.1 502.138 1554.01 524.098 1512.87 538.079C1476.99 550.269 1429.55 561.432 1409.82 525.246C1394.71 497.469 1397.41 459.407 1392.18 427.004C1386.36 390.927 1371.07 359.784 1348.36 335.416C1326.27 311.731 1300.09 288.984 1305.55 248.042C1307.42 233.997 1311.05 216.538 1316.65 203.115C1325.95 181.022 1333.71 158.438 1339.83 135.588Z" stroke="#6078F8" stroke-width="0.5"/>
<path fill-rule="evenodd" clip-rule="evenodd" d="M1358.64 147.741C1378.54 102.171 1404.41 57.732 1449.97 39.7658C1471.23 31.3867 1492.93 29.3993 1514.18 28.551C1529.81 27.9261 1545.12 28.6737 1560.74 21.6372C1575.21 15.1251 1588.9 5.69511 1603.28 -1.2702C1622.29 -10.5282 1642.01 -16.5786 1661.69 -19.1888C1711 -25.6814 1759.03 -13.7099 1800.44 5.31174C1820.49 14.5115 1841.53 25.6716 1856.77 42.5915C1871.49 58.9269 1884.09 78.3397 1894.57 98.4462C1916.86 141.168 1928.44 191.076 1926.6 244.277C1925.34 280.766 1917.56 312.309 1881.22 328.26C1840.25 346.238 1795.13 342.626 1754.28 345.727C1726.27 347.854 1696.05 348.281 1674.59 375.679C1657.51 397.479 1641.71 418.41 1620.77 436.133C1589.79 462.215 1555.37 482.026 1519.56 494.389C1486.86 505.609 1451.17 510.357 1431.17 481.853C1415.33 459.253 1411.51 427.64 1401.88 400.897C1391.17 371.054 1373.74 347.68 1353.98 325.427C1336.23 305.401 1321.98 282.451 1321.32 251.51C1321.18 245.185 1321.14 238.365 1322 231.894C1323.08 223.636 1327.2 217.28 1331.05 209.606C1341.23 189.366 1349.64 168.364 1358.64 147.741Z" stroke="#6078F8" stroke-width="0.5"/>
<path fill-rule="evenodd" clip-rule="evenodd" d="M1382.05 156.649C1406.6 116.84 1437.28 83.7025 1477.71 65.4714C1494.99 57.6689 1512.67 53.3029 1530.21 47.1768C1544.35 42.2318 1557.61 37.7156 1571.93 35.2467C1605.88 29.4247 1639.04 15.42 1673.13 12.5512C1718.65 8.68742 1762.63 17.8559 1801.75 34.4638C1820.85 42.5714 1839.57 52.6398 1855.71 66.1465C1869.57 77.7462 1879.16 94.9889 1887.58 111.789C1904.07 144.707 1915.52 184.282 1914.56 225.075C1912.45 315.011 1807.95 318.531 1752.2 323.863C1726.56 326.319 1690.29 325.216 1667.4 346.843C1651.04 362.291 1636.52 379.274 1619.01 393.249C1571.98 430.778 1501.31 465.689 1457.2 428.885C1438.33 413.141 1427.24 388.602 1413.1 368.105C1398.55 346.998 1380.93 329.523 1363.47 311.468C1347.15 294.598 1336.09 277.902 1335.43 250.559C1335.11 237.497 1342.44 226.498 1348.87 214.577C1359.45 194.999 1370.42 175.512 1382.05 156.649Z" stroke="#6078F8" stroke-width="0.5"/>
<path fill-rule="evenodd" clip-rule="evenodd" d="M1404.32 163.712C1448.5 107.918 1517.27 59.3444 1581.14 49.9049C1656.28 38.8001 1731.69 36.7419 1797.81 62.8498C1828.46 74.9535 1860.35 91.0117 1877.53 121.981C1890.61 145.543 1903.49 176.756 1899.93 207.628C1891.22 283.144 1802.92 294.364 1752.28 301.296C1725.02 305.026 1692.97 305.365 1666.15 318.618C1650.6 326.299 1636.55 340.383 1621.8 350.224C1577.12 380.046 1524.56 394.179 1480.63 375.955C1460.31 367.526 1443.59 352.808 1426.73 338.961C1409.46 324.787 1391.2 311.748 1374.71 296.542C1361.56 284.401 1347.01 268.491 1353.24 245.596C1361.08 216.742 1386.27 186.499 1404.32 163.712Z" stroke="#6078F8" stroke-width="0.5"/>
<path fill-rule="evenodd" clip-rule="evenodd" d="M1430.4 166.263C1476.01 116.137 1533.49 75.0515 1594.44 65.3873C1626.76 60.2636 1659.18 62.8009 1690.51 64.8893C1726.03 67.2588 1760.89 73.4783 1793.07 85.5144C1833.15 100.497 1895.18 129.564 1883.82 191.141C1872.55 252.261 1798.77 268.017 1755.71 276.386C1728.11 281.739 1700.04 285.011 1672.34 292.345C1657.32 296.32 1643.53 303.061 1628.95 309.545C1588.59 327.543 1542.87 333.522 1503.44 327.686C1465.23 322.033 1424.02 304.938 1394.27 281.343C1381.43 271.17 1375.14 259.095 1381.34 239.237C1389.98 211.643 1411.55 186.968 1430.4 166.263Z" stroke="#6078F8" stroke-width="0.5"/>
<path fill-rule="evenodd" clip-rule="evenodd" d="M1457.71 161.191C1499.12 117.956 1551.04 86.939 1604.76 78.3352C1664.98 68.6888 1727.71 80.9156 1780.75 99.836C1808.94 109.897 1871.69 128.949 1860.94 175.869C1850.2 222.789 1789.92 239.164 1755.8 247.621C1714.42 257.844 1671.54 265.964 1629.76 272.342C1593.45 277.898 1555.25 282.928 1519.67 282.693C1499.58 282.612 1479.84 280.543 1460.69 276.511C1446.53 273.493 1427.99 270.541 1417.49 260.145C1391.01 233.912 1437.9 181.862 1457.71 161.191Z" stroke="#6078F8" stroke-width="0.5"/>
<path fill-rule="evenodd" clip-rule="evenodd" d="M1490.57 161.059C1572.36 81.1929 1679.04 81.8478 1764.56 111.115C1784.43 117.92 1841.94 133.97 1834.39 168.838C1827.05 202.64 1776.72 217.714 1753.05 224.958C1679.69 247.404 1603.57 250.989 1530.49 255.948C1507.68 257.496 1464.08 264.394 1450.88 241.195C1436.56 215.983 1473.62 177.622 1490.57 161.059Z" stroke="#6078F8" stroke-width="0.5"/>
<path fill-rule="evenodd" clip-rule="evenodd" d="M1526.6 156.777C1590.08 99.9746 1676.84 97.6508 1742.43 119.109C1758.49 124.368 1800.4 135.873 1799.4 161.768C1798.48 185.723 1759.18 197.622 1744.11 202.679C1710.56 213.945 1675.81 218.954 1641.79 223.394C1610.32 227.51 1578.37 231.911 1547.37 232.75C1531.04 233.187 1499.24 235.951 1492.81 216.263C1485.88 195.076 1512.51 169.39 1526.6 156.777Z" stroke="#6078F8" stroke-width="0.5"/>
<path fill-rule="evenodd" clip-rule="evenodd" d="M1567.29 153.697C1611.2 118.033 1673.23 115.012 1718.17 128.624C1730.26 132.293 1757.07 139.078 1758.62 156.576C1760.03 172.689 1737.01 181.229 1726.62 185.315C1680.55 203.43 1624.62 210.737 1578.84 208.354C1567.33 207.754 1546.18 207.444 1542.84 192.685C1539.41 177.535 1557.21 161.885 1567.29 153.697Z" stroke="#6078F8" stroke-width="0.5"/>
<path fill-rule="evenodd" clip-rule="evenodd" d="M1607.73 153.163C1630.74 135.996 1665.45 133.466 1688.93 140.133C1705.46 144.828 1720.55 158.417 1696.25 170.796C1672.12 183.072 1638.49 187.318 1614.35 183.654C1595.94 180.856 1587.96 167.91 1607.73 153.163Z" stroke="#6078F8" stroke-width="0.5"/>
<path fill-rule="evenodd" clip-rule="evenodd" d="M761.557 -142.379C787.863 -187.508 796.342 -245.742 833.373 -285.58C863.784 -318.301 905.433 -297.533 939.489 -300.173C966.551 -302.267 991.664 -319.692 1015.69 -336.453C1037.27 -351.496 1058.28 -367.721 1080.14 -382.13C1094.29 -391.44 1120.51 -410.652 1134.41 -402.931C1147.72 -395.541 1147.65 -368.333 1148.12 -351.945C1148.73 -330.582 1147.6 -308.873 1147.77 -287.435C1148.05 -251.284 1155.69 -220.061 1166.77 -188.196C1179.37 -151.936 1192.83 -116.146 1207.14 -80.8254C1217.65 -54.7766 1228.36 -28.7576 1237.26 -1.72442C1242.84 15.2357 1257.15 49.3608 1246.19 67.8614C1240.96 76.6886 1228.29 82.3292 1219.47 86.5952C1204.54 93.818 1189.13 99.3676 1173.84 104.665C1145.35 114.535 1116.7 123.084 1088.1 131.973C1050.99 143.51 1015.11 155.237 978.647 171.748C940.933 188.853 903.541 207.461 866.003 225.42C840.577 237.588 813.674 252.246 787.042 253.085C753.703 254.106 743.766 225.937 719.563 211.136C698.745 198.401 735.866 140.115 743.101 122.053C750.447 103.785 753.89 84.7385 761.649 66.6641C771.338 44.1041 784.119 22.7472 796.085 1.251C810.726 -25.0388 825.135 -49.784 808.488 -73.1667C799.009 -86.4649 785.828 -95.9828 774.553 -107.311C767.25 -114.654 753.246 -128.122 761.557 -142.379Z" stroke="#6078F8" stroke-width="0.5"/>
<path fill-rule="evenodd" clip-rule="evenodd" d="M775.579 -144.097C795.886 -182.857 811.737 -238.558 847.201 -269.853C877.505 -296.599 912.784 -281.229 945.232 -285.346C972.012 -288.733 994.176 -307.288 1017.09 -324.833C1035.47 -338.907 1053.73 -353.291 1072.74 -366.184C1086.75 -375.685 1109.42 -392.317 1123.74 -387.421C1136.62 -383.021 1137.05 -356.051 1137.45 -342.223C1138.03 -322.039 1136.51 -301.413 1135.45 -280.961C1133.58 -245.034 1133.72 -211.64 1142.91 -178.9C1152.15 -146.018 1166.44 -116.998 1180.61 -87.2156C1191.69 -63.9151 1202.47 -40.316 1211.49 -15.679C1218.22 2.6679 1228.89 27.388 1223.6 49.7152C1219.42 67.3799 1180.67 77.5857 1168.39 82.0239C1143.12 91.1387 1117.63 98.6387 1092.18 106.019C1061.16 115.007 1031.07 121.087 1000.54 134.253C945.931 157.787 890.103 194.407 833.359 202.188C799.133 206.881 770.604 196.198 746.608 178.001C737.106 170.796 745.181 151.831 750.033 140.855C758.09 122.62 768.186 105.212 776.778 87.2037C784.819 70.3454 790.51 53.158 797.156 35.8815C803.892 18.3792 812.86 1.68863 820.394 -15.4826C825.074 -26.1411 830.741 -38.4111 829.981 -49.6972C829.197 -61.3794 821.813 -70.5145 815.121 -78.1035C802.526 -92.309 761.251 -116.744 775.579 -144.097Z" stroke="#6078F8" stroke-width="0.5"/>
<path fill-rule="evenodd" clip-rule="evenodd" d="M799.693 -152.276C816.704 -188.929 837.321 -234.923 871.393 -257.637C899.248 -276.212 928.77 -266.09 957.613 -271.768C981.601 -276.488 1000.91 -295.319 1021.1 -311.462C1037.67 -324.701 1054.32 -337.994 1071.74 -349.602C1084.95 -358.405 1102.47 -370.576 1116.6 -367.925C1128.68 -365.656 1129.97 -342.528 1130.53 -331.063C1131.48 -311.529 1129.71 -291.351 1128 -271.41C1125.2 -238.784 1120.39 -205.031 1125.65 -173.966C1130.78 -143.808 1144.01 -119.873 1156.75 -94.2493C1166.5 -74.6198 1175.92 -54.66 1183.59 -33.6326C1189.48 -17.4929 1197.08 2.00612 1193.8 20.9966C1190.97 37.3825 1168.28 45.1453 1156.02 50.5389C1135.8 59.4367 1115.14 66.3353 1094.61 73.3926C1072.46 81.0032 1049.64 86.5876 1027.68 94.8272C981.492 112.178 938.452 136.255 890.81 142.184C859.953 146.028 822.752 144.009 799.572 126.424C782.904 113.774 813.066 66.2331 820.616 49.7884C832.946 22.8911 843.42 -6.8598 848.732 -35.2683C853.268 -59.6211 839.325 -76.3492 825.79 -90.5558C817.314 -99.4612 807.576 -107.371 800.352 -117.606C791.993 -129.458 792.563 -136.912 799.693 -152.276Z" stroke="#6078F8" stroke-width="0.5"/>
<path fill-rule="evenodd" clip-rule="evenodd" d="M821.302 -160.891C836.607 -191.336 857.796 -225.481 887.153 -242.133C912.873 -256.715 938.549 -249.195 964.774 -257.099C985.238 -263.263 1003.36 -282.471 1020.76 -296.429C1042.03 -313.496 1077.71 -347.186 1103.09 -343.171C1126.69 -339.431 1117.11 -278.485 1115.2 -259.739C1112.19 -230.066 1106.05 -199.228 1106.42 -169.933C1106.74 -144.711 1115.86 -125.391 1125.47 -104.751C1137.7 -78.4103 1159.06 -43.0584 1153.74 -9.2407C1149.78 15.96 1104.96 30.0334 1087.4 38.5917C1069.05 47.5251 1051.41 60.5917 1033.06 68.8243C1004.11 81.8148 968.13 84.6625 939.098 85.8893C910.869 87.09 875.748 86.0897 853.349 71.4341C838.625 61.8051 852.844 31.646 857.976 15.8236C865.235 -6.69091 869.743 -28.066 864.657 -49.4017C859.481 -71.12 847.569 -87.046 834.364 -102.653C827.574 -110.644 819.206 -118.723 815.074 -129.105C810.451 -140.48 815.421 -149.187 821.302 -160.891Z" stroke="#6078F8" stroke-width="0.5"/>
<path fill-rule="evenodd" clip-rule="evenodd" d="M845.725 -169.298C860.964 -194.383 881.8 -218.376 907.447 -229.377C928.809 -238.542 950.289 -232.989 971.37 -242.812C988.064 -250.587 1003.59 -266.25 1018.64 -277.889C1037.06 -292.16 1066.82 -318.537 1088.69 -314.191C1110.02 -309.933 1104.03 -264.783 1102.24 -246.564C1099.61 -219.858 1094.35 -193.034 1091.84 -166.331C1089.86 -145.389 1093.09 -129.183 1099.48 -111.08C1106.98 -89.8216 1119.56 -63.7001 1115.28 -38.5536C1112.16 -20.3615 1084.12 -5.14088 1071.27 4.82085C1062.65 11.5155 1054.23 18.5194 1046.85 26.9556C1041.1 33.5247 1036.87 40.2612 1029.24 44.2809C1010.03 54.3864 987.611 43.7431 970.099 40.3566C946.843 35.8539 921.854 31.601 900.985 21.1164C888.149 14.6879 890.171 -2.85947 888.995 -16.7643C887.609 -33.2002 880.848 -48.4842 875.814 -63.283C869.182 -82.8319 858.76 -98.7745 847.935 -115.193C843.053 -122.601 836.937 -130.665 835.55 -140.393C834.074 -150.502 840.227 -160.244 845.725 -169.298Z" stroke="#6078F8" stroke-width="0.5"/>
<path fill-rule="evenodd" clip-rule="evenodd" d="M870.137 -175.099C885.229 -194.741 904.875 -210.375 926.558 -217.642C943.191 -223.23 960.016 -221.893 976.109 -230.945C991.108 -239.385 1004.95 -250.91 1019.21 -261C1034.3 -271.663 1058.33 -290.197 1075.4 -285.305C1093.8 -280.03 1091.32 -248.258 1089.95 -230.653C1088.2 -208.406 1083.63 -186.092 1080.62 -163.799C1078.45 -147.146 1078.53 -130.668 1080.88 -114.914C1083.3 -98.3339 1089.25 -80.2756 1084.68 -62.2307C1080.62 -46.2525 1063.17 -34.4579 1053.58 -21.5447C1043.33 -7.74906 1036.6 9.16355 1021.06 16.9605C989.02 33.0401 950.647 3.43071 926.722 -10.1892C903.1 -23.6034 893.93 -50.7332 884.173 -77.1634C877.726 -94.6168 869.845 -110.852 862.675 -127.812C855.37 -145.111 856.856 -157.813 870.137 -175.099Z" stroke="#6078F8" stroke-width="0.5"/>
<path fill-rule="evenodd" clip-rule="evenodd" d="M892.678 -177.182C918.23 -203.523 950.33 -206.397 980.194 -219.962C1004.64 -231.071 1038.01 -264.439 1063.11 -256.422C1091.61 -247.318 1075.3 -186.335 1071.92 -161.054C1068.18 -133.014 1074.45 -104.608 1067.43 -76.7639C1063.74 -62.1466 1053.59 -52.5425 1044.17 -41.3823C1033.83 -29.1258 1023.85 -16.2383 1009.73 -9.8528C981.946 2.71137 953.001 -14.884 931.735 -26.8569C909.719 -39.2488 899.422 -65.4861 891.009 -90.5517C882.073 -117.112 866.483 -150.164 892.678 -177.182Z" stroke="#6078F8" stroke-width="0.5"/>
<path fill-rule="evenodd" clip-rule="evenodd" d="M1286.91 1128.85C1231.67 1134.17 1174.41 1131.56 1119.38 1130.8C1038.97 1129.7 958.237 1127.14 880.118 1115.37C838.237 1109.06 782.753 1102.9 753.266 1070.42C742.484 1058.54 737.686 1039.33 730.566 1024.44C720.748 1003.91 710.371 983.77 700.035 963.623C679.293 923.225 658.324 882.971 638.941 841.597C629.609 821.672 622.383 799.296 611.48 780.53C605.111 769.559 592.24 765.168 581.865 759.386C557.83 745.996 533.393 733.307 509.087 720.4C479.359 704.61 449.507 688.878 421.022 670.945C408.177 662.853 374.621 646.523 375.672 628.552C376.241 618.876 393.298 611.059 401.199 607.448C415.711 600.805 430.707 595.973 445.523 591.173C479.789 580.072 514.646 570.837 548.296 555.658C565.59 547.852 587.538 538.806 592.46 516.921C597.436 494.819 596.458 472.505 601.049 450.257C606.328 424.653 616.469 400.801 626.434 376.275C633.795 358.146 636.571 339.832 640.066 321.141C643.932 300.482 647.658 279.546 653.997 259.12C658.182 245.626 666.246 221.671 680.801 220.282C701.488 218.3 723.197 243.014 737.651 255.944C757.631 273.808 776.738 292.751 796.406 310.996C810.68 324.247 824.812 337.864 841.181 348.245C867.568 364.98 895.778 378.884 923.736 392.847C975.504 418.702 1027.74 442.97 1077.36 472.783C1120.83 498.902 1184.43 620.602 1201.45 645.531C1235.43 695.293 1271.33 744.684 1298.51 800.057C1305.86 815.044 1318.13 836.503 1314.85 856.288C1312.83 868.482 1307.62 873.1 1313 884.975C1320.35 901.176 1334.38 914.237 1345.95 926.46C1364.57 946.142 1383.95 964.972 1403.03 984.127C1441.64 1022.84 1479.05 1062.86 1516.87 1102.46C1528.3 1114.44 1544.36 1125.22 1553.44 1139.66C1559.3 1148.95 1555.22 1153.77 1544.84 1156.3C1526.63 1160.75 1506.85 1157.41 1489.48 1155.76C1464.04 1153.33 1438.89 1149.7 1413.8 1145.93C1388.71 1142.17 1363.67 1138.08 1338.56 1134.33C1321.98 1131.83 1304.15 1127.19 1286.91 1128.85Z" stroke="#6078F8" stroke-width="0.5"/>
<path fill-rule="evenodd" clip-rule="evenodd" d="M1259.05 1103.33C1201.56 1107.39 1143.08 1103.02 1086.55 1099.06C1014.2 1094.01 941.649 1086.44 872.68 1069.02C832.189 1058.78 784.887 1045.93 757.008 1013.01C747.063 1001.27 743.453 986.135 737.797 971.295C731.356 954.368 723.964 937.962 716.488 921.693C701.099 888.206 685.069 855.16 668.399 822.558C659.591 805.254 651.159 784.102 637.057 771.461C625.847 761.408 609.33 756.284 595.983 749.661C571.946 737.732 547.88 725.863 523.972 713.698C496.386 699.659 468.811 685.432 442.468 669.197C427.785 660.149 400.758 647.647 397.308 629.708C394.3 614.055 449.613 597.217 459.653 593.736C491.004 582.869 522.671 573.613 553.669 560.474C571.97 552.739 594.241 543.34 609.431 527.641C622.372 514.259 626.068 492.371 630.6 475.536C636.284 454.453 643.356 433.306 647.982 412.102C652.106 393.212 652.06 374.149 653.214 355.417C654.485 334.811 655.807 313.886 660.038 293.116C662.658 280.345 667.119 259.003 680.534 253.391C696.019 246.93 717.75 270.289 727.559 278.43C747.432 294.991 766.144 313.103 785.191 330.698C816.831 359.917 847.35 387.183 885.102 407.728C934.268 434.476 985.056 458.421 1034.59 484.544C1052.88 494.18 1072.07 502.976 1089.13 514.702C1098.91 521.428 1104.36 529.858 1105.14 541.945C1106.2 558.443 1120.9 576.055 1129.8 590.504C1143.68 613.026 1158.26 634.972 1172.7 657.011C1204.4 705.401 1237.42 753.528 1263.01 806.859C1271.11 823.728 1280.54 842.78 1281.7 863.305C1282.35 874.753 1276.25 881.743 1274.43 892.407C1272.08 906.452 1283.69 920.406 1290.24 929.4C1302.88 946.764 1317.63 962.178 1332.43 977.206C1365.93 1011.21 1401.61 1041.77 1438.91 1070.9C1447.66 1077.72 1482.42 1104.02 1451.4 1111.44C1417.12 1119.65 1379.76 1111.32 1347.21 1108C1317.9 1104.98 1289.02 1101.21 1259.05 1103.33Z" stroke="#6078F8" stroke-width="0.5"/>
<path fill-rule="evenodd" clip-rule="evenodd" d="M1206.57 1064.83C1153.56 1066.94 1100.26 1060.26 1048.61 1053.46C985.944 1045.22 923.438 1033.88 864.843 1013.37C828.039 1000.47 788.822 983.987 763.07 953.196C745.483 932.171 740.787 901.081 729.871 875.073C718.955 849.066 706.723 823.46 692.543 799.723C683.743 784.991 673.991 769.618 659.009 761.862C622.585 743 584.356 727.237 547.684 708.701C523.414 696.456 499.28 683.879 476.226 669.45C462.322 660.753 442.393 650.181 435.371 633.682C427.612 615.438 552.042 574.246 564.726 568.816C596.528 555.199 636.717 535.915 653.908 499.704C670.34 465.086 671.095 432.323 670.752 397.256C670.578 377.321 665.333 321.193 687.33 308.62C699.9 301.431 717.628 317.186 726.677 323.628C744.511 336.323 761.237 350.628 778.216 364.523C802.986 384.759 827.217 407.586 853.398 425.741C871.631 438.379 891.714 448.194 910.743 459.581C938.026 475.912 965.13 492.541 992.207 509.216C1014.94 523.218 1038.17 536.833 1059.37 553.215C1072.55 563.383 1081.09 573.553 1084.97 590.128C1088.35 604.548 1098.5 617.9 1106.3 630.464C1119.18 651.212 1132.74 671.408 1146.14 691.71C1174.2 734.222 1202.95 776.609 1226.49 822.812C1237.25 843.898 1257.14 876.328 1245.52 904.807C1241.33 915.077 1239.97 919.78 1244.28 929.639C1250.39 943.631 1261.12 954.729 1271.31 964.895C1295.06 988.595 1324.41 1004.82 1348.16 1028.41C1357.81 1038.05 1368.97 1053.04 1347.63 1059.2C1322.71 1066.43 1295.32 1062.17 1271.16 1061.37C1259.09 1060.96 1246.95 1060.07 1234.68 1061.05C1225.25 1061.82 1215.96 1064.49 1206.57 1064.83Z" stroke="#6078F8" stroke-width="0.5"/>
<path fill-rule="evenodd" clip-rule="evenodd" d="M1139.11 1013.19C1091.8 1012.32 1044.78 1004.11 999.318 994.859C948.835 984.564 898.867 971.136 852.544 950.365C820.551 936.034 788.128 917.995 765.783 889.596C751.654 871.633 748.035 849.537 739.653 827.795C727.019 794.954 710.122 764.794 679.403 751.205C644.968 735.961 611.029 719.654 577.585 702.285C557.411 691.81 537.344 680.985 518.38 668.443C506.386 660.519 491.06 650.1 484.432 636.872C475.569 619.163 570.994 582.272 583.766 576.213C615.442 561.186 643.418 542.258 669.174 515.536C690.189 493.728 690.265 466.705 689.386 440.42C688.833 424.091 681.987 379.745 698.862 369.113C708.144 363.236 721.808 372.04 729.546 376.104C744.29 383.854 758.095 393.305 772.126 402.242C792.83 415.463 817.602 424.987 836.567 440.697C878.602 475.505 921.086 509.303 964.734 542.076C988.797 560.139 1013.16 578.055 1035.51 598.44C1043.54 605.759 1051.8 613.367 1057.95 622.714C1061.92 628.723 1062.22 635.086 1064.68 641.634C1076.4 672.823 1100.14 699.509 1118.53 726.027C1142.96 761.28 1167.72 796.405 1189.62 833.862C1201.14 853.564 1218.63 878.755 1218.92 905.016C1219.01 912.951 1214.7 916.669 1213.6 923.585C1212.33 931.557 1219.02 938.186 1223.01 943.019C1232.07 953.993 1276.51 989.058 1240 999.575C1222.59 1004.57 1204.73 1003.76 1187.43 1005.52C1181.17 1006.15 1175.01 1006.87 1168.78 1009.07C1158.37 1012.77 1149.92 1013.38 1139.11 1013.19Z" stroke="#6078F8" stroke-width="0.5"/>
<path fill-rule="evenodd" clip-rule="evenodd" d="M1067.59 957.884C978.513 949.024 883.794 922.54 810.778 872.772C786.5 856.217 762.343 835.135 750.465 805.526C743.472 788.051 739.816 770.87 726.493 758.07C716.874 748.831 703.138 744.506 691.299 738.813C674.15 730.57 657.088 722.161 640.166 713.485C619.202 702.707 598.354 691.586 578.486 678.899C564.29 669.83 544.09 658.302 537.24 641.302C529.054 621.017 598.981 590.948 610.013 584.732C636.751 569.667 659.177 552.978 679.033 527.39C684.827 519.941 693.038 513.669 697.478 505.32C702.004 496.787 702.255 486.92 702.309 478.106C702.391 466.56 697.056 435.854 708.302 428.471C714.515 424.395 725.328 429.909 731.439 431.926C742.911 435.695 753.89 440.613 765.14 444.89C784.235 452.131 807.424 452.283 824.54 462.958C870.573 491.648 907.159 537.586 946.908 574.627C970.528 596.666 994.651 618.283 1016.71 642.167C1023.69 649.726 1030.88 657.524 1036.4 666.552C1040.26 672.852 1040.73 680.234 1043.97 686.636C1056.35 711.201 1074.7 732.619 1091.03 753.955C1112.22 781.676 1133.7 809.121 1154.26 837.438C1167.15 855.186 1185.52 875.024 1192.24 897.615C1197.15 914.113 1187.92 912.618 1176.6 918.436C1170.83 921.399 1168.71 926.465 1164.22 931.052C1157.8 937.6 1149.35 940.01 1141.56 942.056C1130.8 944.89 1118.55 945.192 1108.08 950.298C1104.39 952.094 1102.28 955.808 1099.18 957.445C1090.17 962.219 1075.97 958.717 1067.59 957.884Z" stroke="#6078F8" stroke-width="0.5"/>
<path fill-rule="evenodd" clip-rule="evenodd" d="M1000.89 902.504C932.173 889.259 862.436 863.327 806.155 822.098C786.575 807.751 768.376 790.817 754.892 769.537C748.749 759.87 745.098 751.014 735.634 744.969C713.672 730.945 689.997 719.614 667.368 706.712C651.173 697.48 635.039 687.965 620.042 676.824C610.013 669.378 596.353 659.47 592.408 646.263C586.69 627.044 633.276 601.384 644.481 593.293C663.058 579.872 682.787 564.397 692.281 541.656C695.182 534.7 696.911 528.055 700.611 521.407C703.769 515.683 707.454 510.86 709.04 504.526C711.013 496.677 708.238 480.99 714.992 476.731C719.599 473.82 725.947 477.369 730.893 478.523C738.916 480.396 747.186 481.498 755.618 481.817C764.508 482.135 773.616 479.844 782.359 480.948C796.548 482.748 809.386 489.83 821.166 496.938C868.166 525.304 909.022 565.246 947.778 604.628C967.961 625.134 988.031 646.127 1005.63 669.411C1010.97 676.483 1017.25 684.131 1020.3 693.094C1022.21 698.679 1022.37 704.341 1025.29 709.434C1050.23 752.928 1088.94 786.775 1119.69 825.84C1127.7 836.008 1173.21 890.435 1131.92 891.096C1106.83 891.501 1084.43 885.083 1058.43 890.632C1050.52 892.312 1044.78 894.194 1038.46 900.22C1034.27 904.239 1038.88 903.691 1031.47 906.076C1022.52 908.913 1008.9 904.046 1000.89 902.504Z" stroke="#6078F8" stroke-width="0.5"/>
<path fill-rule="evenodd" clip-rule="evenodd" d="M949.975 855.573C873.951 832.814 803.675 791.679 745.7 736.524C731.082 722.624 712.978 712.969 696.469 701.748C680.42 690.859 649.763 675.032 647.07 652.206C645.116 635.657 669.025 617.351 679.899 606.687C693.751 593.102 707.396 578.668 709.926 558.91C711.407 547.338 711.136 535.314 712.274 523.653C712.815 518.082 712.557 508.892 716.792 505.853C723.788 500.843 739.199 506.224 747.765 507.025C775.141 509.587 799.203 520.501 821.874 534.221C863.747 559.563 901.708 591.906 937.154 626.133C953.461 641.881 969.856 658.08 983.551 676.652C991.301 687.158 993.941 700.029 1000.85 710.874C1023.11 745.803 1052.16 774.777 1075.77 808.679C1082.61 818.494 1109.16 853.45 1081.66 859.337C1055.04 865.035 1031.33 848.206 1004.6 852.552C1001.56 853.064 997.846 853.627 995.016 855.704C993.332 856.951 992.643 860.836 991.554 861.467C979.947 868.457 959.623 858.465 949.975 855.573Z" stroke="#6078F8" stroke-width="0.5"/>
<path fill-rule="evenodd" clip-rule="evenodd" d="M913.679 818.731C876.516 804.12 841.173 784.797 806.634 764.531C787.755 753.453 766.262 742.532 751.402 725.68C742.279 715.32 733.271 705.64 723.004 696.396C711.957 686.449 692.882 672.579 693.185 654.822C693.413 641.553 709.478 623.65 716.88 611.798C724.993 598.797 728.647 587.735 726.725 573.787C725.522 565.008 716.596 530.403 722.842 525.724C728.789 521.265 744.547 529.502 752.047 531.922C775.761 539.55 797.848 550.515 818.838 563.488C851.35 583.572 881.768 607.419 909.786 633.823C921.361 644.755 933.319 656.058 942.545 669.547C948.755 678.636 951.712 689.913 957.786 699.1C975.17 725.429 996.204 748.853 1013.54 775.446C1019.1 783.988 1038.59 809.541 1023.03 821.53C1010.05 831.544 990.257 825.069 976.435 828.702C952.898 834.923 934.099 826.765 913.679 818.731Z" stroke="#6078F8" stroke-width="0.5"/>
<path fill-rule="evenodd" clip-rule="evenodd" d="M896.898 798.153C867.79 785.759 839.323 770.882 812.021 754.587C794.402 744.071 775.671 733.214 761.305 718.028C754.086 710.403 749.948 700.225 744.165 691.265C738.206 682.043 729.326 670.411 731.384 658.713C733.319 647.72 742.43 635.46 745.887 622.88C748.948 611.715 746.886 602.442 744.725 592.354C743.356 585.913 734.326 556.168 738.982 553.597C743.971 550.844 755.636 558.321 762.164 561.448C780.167 570.038 797.56 579.778 814.267 590.628C837.036 605.493 859.047 622.023 878.633 641.271C892.53 654.92 899.204 671.553 910.255 687.451C924.559 708.068 940.677 727.26 954.294 748.595C961.08 759.225 971.684 774.028 969.173 789.435C968.216 795.344 962.787 808.569 957.803 812.058C951.814 816.251 940.869 812.979 935.507 811.759C922.083 808.688 909.271 803.421 896.898 798.153Z" stroke="#6078F8" stroke-width="0.5"/>
<path fill-rule="evenodd" clip-rule="evenodd" d="M741.577 51.9613C748.781 -11.1924 774.007 -74.9625 771.728 -140.323C769.858 -194.004 732.917 -202.352 712.996 -228.677C697.165 -249.592 690.591 -284.385 684.348 -317.761C678.737 -347.726 674.1 -378.472 667.976 -408.008C664.009 -427.104 657.676 -464.448 644.931 -466.45C632.73 -468.37 618.51 -441.282 609.628 -425.32C598.048 -404.514 587.37 -382.157 576.022 -360.975C556.895 -325.244 535.749 -299.531 512.112 -275.576C485.215 -248.319 458.032 -222.119 430.563 -196.978C410.332 -178.406 389.994 -160 370.252 -139.332C357.868 -126.363 331.027 -102.41 328.181 -76.4003C326.824 -63.9897 331.794 -49.5647 335.077 -39.1853C340.631 -21.6159 347.359 -5.37878 354.149 10.5295C366.794 40.1626 380.234 68.5952 393.464 97.3329C410.635 134.63 426.933 171.255 441.083 213.035C455.708 256.28 469.344 300.795 483.411 344.766C492.937 374.554 502.082 407.842 518.302 427.212C538.623 451.428 559.607 430.351 582.508 432.488C602.207 434.321 609.544 350.565 614.487 327.581C619.469 304.315 627.301 282.992 631.923 259.631C637.69 230.469 640.891 200.351 644.676 170.662C649.3 134.347 653.259 99.7283 675.932 88.0779C688.834 81.4605 702.069 81.1751 715.062 77.7647C723.48 75.5501 739.301 71.9136 741.577 51.9613Z" stroke="#6078F8" stroke-width="0.5"/>
<path fill-rule="evenodd" clip-rule="evenodd" d="M733.476 38.3612C741.111 -14.4145 760.438 -80.959 754.652 -136.873C749.711 -184.656 719.527 -193.955 701.355 -220.692C686.351 -242.747 682.208 -276.692 677.067 -310.153C672.941 -336.994 669.05 -364.065 663.909 -390.17C660.12 -409.408 654.65 -441.789 643.105 -446.901C632.726 -451.498 618.285 -424.937 610.769 -411.441C599.803 -391.739 589.924 -370.129 579.846 -349.015C562.14 -311.927 544.515 -278.755 521.552 -252.557C498.488 -226.246 474.29 -207.304 449.767 -187.52C430.581 -172.041 411.431 -156.049 392.832 -137.805C378.977 -124.222 359.305 -107.041 350.893 -81.1071C344.235 -60.5919 363.155 -23.398 368.521 -10.408C379.571 16.3014 391.602 41.5494 403.674 66.6544C418.392 97.247 434.056 124.294 446.276 158.711C468.135 220.247 483.885 295.671 515.359 343.007C534.342 371.557 557.834 380.817 582.431 379.43C592.17 378.881 597.073 354.356 599.798 340.037C604.327 316.251 607.145 291.868 611.22 267.936C615.037 245.533 620.499 224.441 625.41 202.596C630.382 180.462 633.529 157.579 637.829 135.219C640.495 121.336 643.388 105.16 649.793 94.4475C656.421 83.3571 665.848 79.4087 674.028 76.5169C689.384 71.152 728.087 75.6048 733.476 38.3612Z" stroke="#6078F8" stroke-width="0.5"/>
<path fill-rule="evenodd" clip-rule="evenodd" d="M723.957 16.1623C732.536 -32.0656 743.756 -92.0775 734.321 -138.333C726.61 -176.154 702.789 -186.642 687.688 -212.344C675.128 -233.718 672.912 -265.846 668.724 -295.926C665.286 -320.599 661.828 -345.38 657.004 -369.022C653.345 -386.951 648.752 -411.222 638.502 -418.42C629.738 -424.572 616.787 -402.504 610.415 -391.512C599.562 -372.779 590.084 -351.507 580.685 -330.52C565.309 -296.18 550.607 -259.317 531.003 -232.131C511.957 -205.751 491.096 -191.192 469.66 -174.608C453.241 -161.902 436.856 -148.637 421.011 -133.093C408.844 -121.166 393.842 -107.093 385.933 -85.9502C379.099 -67.7178 389.254 -44.2186 394.103 -30.3396C402.112 -7.43372 411.443 13.7888 420.605 35.0754C430.495 58.04 441.87 79.461 451.31 102.918C471.157 152.278 485.499 206.127 512.253 245.157C529.579 270.439 553.961 294.314 577.724 292.979C594.813 292.013 600.863 223.825 604.763 202.244C611.154 166.96 620.206 130.133 631.789 98.2293C641.73 70.8931 659.253 63.9827 675.196 59.2925C685.185 56.3462 695.442 55.2669 705.343 50.1296C716.806 44.1758 720.362 36.3776 723.957 16.1623Z" stroke="#6078F8" stroke-width="0.5"/>
<path fill-rule="evenodd" clip-rule="evenodd" d="M712.956 -6.20707C719.346 -47.1601 723.999 -95.8928 714.381 -132.91C705.95 -165.335 685.965 -175.739 673.719 -201.871C664.162 -222.259 662.902 -253.996 659.343 -280.004C654.995 -311.802 650.354 -370.177 632.393 -383.859C615.683 -396.58 589.735 -329.265 581.102 -309.286C567.435 -277.664 555.111 -242.706 539.53 -213.815C526.112 -188.943 510.286 -176.077 493.469 -162.232C472.022 -144.544 440.151 -124.248 425.753 -86.8965C415.021 -59.0646 435.652 -13.8425 442.14 6.90424C448.927 28.5778 453.098 53.8612 460.25 74.8338C471.536 107.928 492.527 135.826 510.026 157.27C527.037 178.129 549.507 201.598 571.184 202.62C585.431 203.296 592.35 163.384 597.435 144.067C604.697 116.61 613.082 92.2029 627.44 74.5178C642.056 56.5147 657.845 48.9672 674.275 42.6369C682.706 39.4164 692.169 37.2078 700.191 29.7557C709.041 21.6595 710.498 9.53389 712.956 -6.20707Z" stroke="#6078F8" stroke-width="0.5"/>
<path fill-rule="evenodd" clip-rule="evenodd" d="M703.29 -32.7447C706.908 -68.2622 706.457 -106.59 696.199 -135.358C687.656 -159.32 671.332 -168.746 663.309 -193.167C656.954 -212.502 655.455 -238.865 652.154 -260.889C648.123 -287.877 643.342 -334.786 627.409 -345.679C611.855 -356.289 591.96 -307.266 583.536 -287.927C571.196 -259.567 560.434 -229.263 548.019 -200.993C538.29 -178.813 527.786 -164.962 514.317 -151.423C498.504 -135.52 476.966 -118.325 466.474 -90.3673C458.899 -70.1224 468.444 -35.4978 471.251 -16.6665C473.13 -4.01895 474.721 8.79399 474.914 22.3085C475.064 32.8326 474.177 42.4644 476.84 51.7677C483.548 75.1699 503.121 80.1886 515.832 89.006C532.714 100.709 550.549 113.867 569.073 117.968C580.456 120.511 588.381 101.673 596.396 88.6787C605.868 73.3163 618.094 62.8366 628.987 51.6376C643.365 36.8317 658.222 28.2439 673.58 19.4641C680.508 15.5011 688.551 11.745 694.51 3.04608C700.726 -5.96856 701.983 -19.9262 703.29 -32.7447Z" stroke="#6078F8" stroke-width="0.5"/>
<path fill-rule="evenodd" clip-rule="evenodd" d="M689.532 -56.63C690.39 -86.697 686.287 -115.951 676.514 -138.297C669.025 -155.452 657.777 -165.849 652.445 -186.075C647.477 -204.928 644.854 -226.048 641.215 -246.031C637.361 -267.157 632.035 -302.35 618.765 -309.384C604.462 -316.959 589.326 -283.614 580.943 -265.132C570.352 -241.776 561.501 -216.379 551.675 -192.1C544.293 -174.009 535.584 -157.67 525.839 -143.626C515.611 -128.816 502.397 -114.991 495.787 -93.8437C489.94 -75.112 494.685 -51.2078 493.912 -31.6725C493.089 -10.8005 488.425 10.7236 494.068 29.3127C505.704 67.649 545.306 64.9288 567.455 68.0505C589.305 71.1654 609.301 50.5573 629.298 31.0539C642.505 18.1778 655.971 7.51393 669.373 -4.36785C683.037 -16.4921 688.778 -30.1695 689.532 -56.63Z" stroke="#6078F8" stroke-width="0.5"/>
<path fill-rule="evenodd" clip-rule="evenodd" d="M678.087 -74.7532C675.884 -118.57 657.263 -143.692 645.654 -177.851C636.156 -205.814 632.738 -262.015 612.79 -271.498C590.142 -282.262 568.37 -210.56 557.226 -183.182C544.861 -152.818 526.024 -129.042 515.82 -96.5964C510.459 -79.5673 511.785 -63.0119 511.838 -45.422C511.893 -26.1077 511.39 -6.41896 516.892 9.70088C527.722 41.4239 555.105 44.0895 574.722 46.993C595.029 50.0017 615.253 31.1682 633.679 12.1866C653.219 -7.91176 680.337 -29.8203 678.087 -74.7532Z" stroke="#6078F8" stroke-width="0.5"/>
<path fill-rule="evenodd" clip-rule="evenodd" d="M667.445 -88.3808C663.07 -119.991 649.704 -146.72 639.207 -171.729C630.444 -192.581 622.958 -233.489 606.735 -238.054C587.669 -243.431 571.447 -202.293 561.076 -177.114C550.873 -152.373 537.204 -126.555 530.096 -98.9709C522.685 -70.2375 530.116 -29.7101 538.972 -7.89582C548.851 16.4296 568.078 27.0549 585.441 27.9508C603.617 28.9161 622.205 11.624 637.972 -6.68159C654.828 -26.2498 672.539 -51.6842 667.445 -88.3808Z" stroke="#6078F8" stroke-width="0.5"/>
<path fill-rule="evenodd" clip-rule="evenodd" d="M658.217 -94.1116C653.665 -120.524 643.382 -143.544 633.833 -164.117C626.464 -179.999 615.943 -206.794 603.112 -208.772C588.996 -210.95 574.729 -190.887 566.791 -169.619C558.964 -148.642 550.264 -122.224 546.946 -98.6572C539.724 -47.3351 570.459 14.2352 598.586 12.4442C625.253 10.7449 667.296 -41.4848 658.217 -94.1116Z" stroke="#6078F8" stroke-width="0.5"/>
<path fill-rule="evenodd" clip-rule="evenodd" d="M608.433 823.115C624.911 859.961 664.529 888.706 669.123 931.427C672.898 966.512 626.571 989.24 604.097 1015.4C586.237 1036.19 581.82 1061.46 577.665 1085.66C573.926 1107.4 571.523 1129.18 567.078 1150.88C564.195 1164.92 560.379 1191.7 544.295 1198.98C528.899 1205.95 507.585 1195.39 494.381 1189.41C477.167 1181.61 460.931 1172.4 443.971 1164.25C415.382 1150.49 385.36 1144.07 352.353 1139.95C314.792 1135.26 276.986 1131.37 238.937 1128.3C210.907 1126 182.76 1123.85 155.115 1119.99C137.773 1117.56 100.663 1114.94 94.0314 1099.71C90.868 1092.44 95.5729 1080.91 98.5819 1072.75C103.672 1058.94 110.419 1045.42 117.282 1032.08C130.062 1007.24 143.999 982.794 157.631 958.248C175.325 926.391 191.977 895.375 205.289 862.085C219.04 827.638 231.378 792.849 244.332 758.202C253.102 734.733 260.982 709.212 279.519 689.227C302.748 664.221 332.03 667.762 361.097 655.609C386.102 645.158 405.117 695.069 414.086 707.384C423.136 719.861 435.611 729.757 444.212 742.464C454.944 758.328 462.503 776.011 470.759 793.144C480.85 814.105 489.897 834.297 520.257 831.036C537.532 829.173 554.506 823.118 571.529 819.168C582.559 816.612 603.228 811.474 608.433 823.115Z" stroke="#6078F8" stroke-width="0.5"/>
<path fill-rule="evenodd" clip-rule="evenodd" d="M599.494 835.436C615.335 865.472 647.73 898.77 646.746 937.133C645.908 969.915 608.326 990.072 588.128 1015.68C571.45 1036.81 570.045 1060.4 567.306 1084.14C565.108 1103.2 563.236 1122.28 559.651 1141.34C557.01 1155.39 553.726 1178.61 539.53 1187.31C526.767 1195.13 505.224 1185.01 494.049 1179.95C477.743 1172.57 462.609 1163.45 447.278 1154.75C420.343 1139.46 393.962 1126.62 361.547 1120.75C328.99 1114.86 295.827 1114.19 262.151 1113.15C235.805 1112.33 209.446 1111.16 183.532 1108.3C164.23 1106.18 137.065 1104.5 123.313 1091.94C112.431 1082 132.384 1049.38 137.764 1038.57C148.844 1016.34 161.348 994.578 173.923 972.887C189.255 946.451 206.204 921.829 217.898 894.133C238.818 844.61 250.321 789.115 285.185 744.109C306.212 716.964 335.23 699.988 366.886 689.276C379.422 685.035 388.517 698.354 393.652 706.194C402.185 719.218 408.595 733.43 416.563 746.761C424.024 759.239 433.442 770.106 442.241 781.714C451.152 793.476 457.811 806.576 465.886 818.8C470.895 826.39 476.459 835.335 485.892 839.143C495.653 843.086 508.178 841.159 518.985 839.145C539.265 835.325 588.314 814.241 599.494 835.436Z" stroke="#6078F8" stroke-width="0.5"/>
<path fill-rule="evenodd" clip-rule="evenodd" d="M590 854.449C606.542 881.167 627.827 914.156 621.052 948.117C615.518 975.883 586.19 993.815 569.79 1017.34C556.148 1036.9 557.003 1058.44 555.093 1079.61C553.525 1096.97 551.943 1114.41 548.477 1131.77C545.849 1144.93 542.753 1162.58 530.442 1172.01C519.916 1180.07 500.778 1172.11 491.345 1168.1C475.28 1161.27 460.685 1152.18 446.223 1143.22C422.565 1128.57 399.48 1111.99 371.224 1103.9C343.777 1096.06 315.362 1096.62 285.978 1096.16C263.47 1095.8 240.943 1095.07 218.844 1092.63C201.877 1090.76 181.028 1088.87 168.459 1079.11C157.602 1070.7 167.916 1050.92 172.536 1039.78C180.168 1021.39 189.687 1003.44 198.984 985.541C209.019 966.224 221.136 947.191 230.538 927.772C250.302 886.917 262.493 845.797 292.298 808.273C311.599 783.968 340.106 757.231 370.719 746.869C392.736 739.42 408.332 780.065 415.813 791.991C428.063 811.485 443.902 830.706 462.419 845.592C478.306 858.339 501.561 854.478 522.537 849.946C535.679 847.112 548.951 842.96 562.234 841.565C577.611 839.953 583.066 843.25 590 854.449Z" stroke="#6078F8" stroke-width="0.5"/>
<path fill-rule="evenodd" clip-rule="evenodd" d="M578.706 873.528C591.586 896.6 603.137 925.446 595.075 953.556C588.006 978.181 563.619 994.226 550.945 1016.64C541.052 1034.13 543.083 1054.94 541.514 1073.18C539.599 1095.48 540.36 1134.85 518.94 1152.03C499.013 1168 458.072 1137.36 444.728 1128.7C423.605 1115 403.817 1098.54 380.557 1087.48C360.528 1077.97 338.794 1077.23 315.678 1076.34C286.197 1075.18 243.072 1077.27 220.355 1060.27C203.424 1047.6 224.639 1009.07 230.562 992.801C236.762 975.798 239.198 957.729 245.944 941.001C256.591 914.604 280.257 886.943 300.193 865.039C319.572 843.737 345.639 818.2 373.268 807.333C391.425 800.189 404.864 822.349 413.59 832.256C426.037 846.321 439.571 857.916 459.98 862.413C480.754 866.992 501.831 864.358 523.588 860.647C534.748 858.725 547.114 855.673 558.238 856.638C570.495 857.625 573.752 864.661 578.706 873.528Z" stroke="#6078F8" stroke-width="0.5"/>
<path fill-rule="evenodd" clip-rule="evenodd" d="M568.351 895.57C577.078 916.534 580.917 941.211 571.089 964.411C562.903 983.735 543.073 997.45 535.608 1016.82C529.693 1032.16 530.81 1049.69 529.118 1065.31C527.063 1084.44 526.342 1116.63 507.181 1131.1C488.475 1145.21 457.335 1123.3 444.313 1114.93C425.234 1102.65 407.954 1088.38 388.789 1076.19C373.767 1066.63 358.713 1062.74 339.895 1060.45C317.801 1057.76 288.224 1056.94 271.558 1044.04C259.521 1034.69 267.76 1008.09 269.187 994.749C270.138 985.79 270.7 976.862 269.39 968.144C268.37 961.356 266.123 955.627 268.464 948.432C274.362 930.331 298.862 917.897 314.133 906.273C334.416 890.841 355.751 874.031 379.013 862.676C393.305 855.685 405.63 863.97 417.397 868.484C431.304 873.822 448.176 874.745 463.423 876.756C483.552 879.424 503.578 877.899 524.268 876.259C533.601 875.521 544.339 874.125 552.977 876.867C561.98 879.689 565.199 888.005 568.351 895.57Z" stroke="#6078F8" stroke-width="0.5"/>
<path fill-rule="evenodd" clip-rule="evenodd" d="M555.39 917.575C559.951 936.366 558.055 956.982 548.09 975.865C540.457 990.355 527.224 1002.31 522.711 1017.74C518.509 1032.12 517.575 1046.84 515.206 1061.32C512.694 1076.63 509.913 1101.61 493.698 1112.37C476.222 1123.96 452.966 1109.82 440.085 1101.98C423.809 1092.07 409.531 1080.04 394.13 1069.18C382.578 1061.11 369.525 1054.8 355.407 1050.43C340.581 1045.81 322.038 1043.22 311.124 1032.84C301.467 1023.64 304.802 1006.14 301.563 994.032C298.104 981.095 289.644 969.555 294.743 955.022C305.258 925.05 356.375 908.082 384.429 895.628C412.102 883.319 440.127 887.033 468.024 890.04C486.45 892.023 504.952 892.472 523.513 893.728C542.438 895.015 551.376 901.037 555.39 917.575Z" stroke="#6078F8" stroke-width="0.5"/>
<path fill-rule="evenodd" clip-rule="evenodd" d="M541.315 933.66C543.551 962.677 522.599 987.497 511.67 1014.78C502.732 1037.12 504.84 1074.61 480.384 1090.07C452.617 1107.62 416.457 1072.1 399.023 1059.87C379.682 1046.31 352.811 1040.01 335.997 1024.1C327.165 1015.76 326.954 1004.56 324.992 993.304C322.833 980.945 319.918 968.609 325.104 955.722C335.315 930.36 370.08 915.749 394.872 904.647C420.535 893.153 448.612 895.645 474.404 899.079C501.75 902.701 539.012 903.907 541.315 933.66Z" stroke="#6078F8" stroke-width="0.5"/>
<path fill-rule="evenodd" clip-rule="evenodd" d="M529.941 947.619C527.992 969.825 513.989 993.15 503.455 1014.03C494.657 1031.44 489.804 1061.04 469.595 1071.58C445.846 1083.98 420.371 1065.39 404.214 1054.21C388.322 1043.24 367.876 1033.22 355.611 1018.98C342.829 1004.15 347.656 974.819 356.461 956.749C366.283 936.596 389.634 920.779 411.722 912.041C434.843 902.875 460.594 905.154 482.855 909.406C506.655 913.95 532.223 921.831 529.941 947.619Z" stroke="#6078F8" stroke-width="0.5"/>
<path fill-rule="evenodd" clip-rule="evenodd" d="M518.107 955.921C515.335 974.919 504.84 994.449 495.001 1012.07C487.409 1025.68 477.047 1047.73 460.862 1055.03C443.058 1063.07 422.495 1056.98 409.886 1047.14C397.453 1037.44 383.276 1024.68 376.31 1011.2C361.148 981.845 393.351 928.086 429.533 915.989C463.839 904.521 523.644 918.063 518.107 955.921Z" stroke="#6078F8" stroke-width="0.5"/>
<path fill-rule="evenodd" clip-rule="evenodd" d="M507.08 962.971C502.617 987.889 483.465 1028.84 455.086 1041.67C422.51 1056.39 401.115 1028.94 395.882 1004.69C390.521 979.953 414.384 930.719 446.527 922.36C477.897 914.2 512.363 933.423 507.08 962.971Z" stroke="#6078F8" stroke-width="0.5"/>
<path fill-rule="evenodd" clip-rule="evenodd" d="M495.078 971.969C491.276 992.94 477.003 1023.18 453.309 1033.97C425.076 1046.82 414.477 1020.35 414.018 1001.27C413.551 981.459 430.903 939.915 457.838 933.878C484.038 928.026 498.72 951.871 495.078 971.969Z" stroke="#6078F8" stroke-width="0.5"/>
<path fill-rule="evenodd" clip-rule="evenodd" d="M483.179 978.967C481.04 993.803 469.48 1016.31 452.675 1024.01C432.13 1033.41 427.264 1010.71 428.336 998.299C429.605 983.537 442.116 953.513 461.515 949.283C480.614 945.119 484.949 966.741 483.179 978.967Z" stroke="#6078F8" stroke-width="0.5"/>
<path fill-rule="evenodd" clip-rule="evenodd" d="M-185.209 -37.2244C-126.246 -47.6125 -68.2624 -48.646 -11.8609 -51.7485C70.5582 -56.277 152.741 -59.0804 228.682 -50.6752C269.394 -46.164 324.179 -42.8263 342.026 -6.07956C348.552 7.35413 346.084 30.0021 347.676 47.3068C349.872 71.1681 352.794 94.5237 355.67 117.889C361.456 164.742 367.531 211.405 371.54 259.523C373.468 282.697 372.281 308.957 376.275 330.629C378.605 343.299 390.171 347.62 398.629 353.788C418.225 368.069 438.506 381.481 458.568 395.164C483.103 411.905 507.789 428.567 530.217 447.963C540.329 456.716 568.6 473.824 560.585 495.414C556.266 507.039 535.678 517.636 526.146 522.534C508.633 531.541 491.32 538.416 474.204 545.239C434.62 561.02 395.148 574.609 354.625 595.227C333.797 605.829 307.697 618.253 294.184 644.81C280.532 671.63 272.932 698.271 259.621 725.237C244.305 756.272 224.657 785.562 204.93 815.646C190.353 837.884 180.429 860.009 169.618 882.639C157.667 907.649 145.752 932.983 131.342 957.896C121.825 974.354 104.277 1003.62 88.7458 1006.34C66.6693 1010.21 53.8375 982.208 43.9343 967.78C30.2412 947.849 17.864 926.561 4.63947 906.151C-4.95488 891.327 -14.2607 876.054 -27.1203 864.817C-47.8497 846.702 -71.5488 832.108 -94.9651 817.426C-138.324 790.24 -182.781 764.988 -222.397 732.907C-257.106 704.801 -275.68 563.74 -283.603 535.135C-299.414 478.037 -317.349 421.522 -323.988 357.212C-325.777 339.806 -330.144 315.009 -319.13 291.086C-312.347 276.342 -305.193 270.435 -306.16 256.611C-307.48 237.752 -316.902 223.137 -324.102 209.346C-335.697 187.139 -348.392 166.006 -360.662 144.464C-385.51 100.93 -408.61 55.744 -432.295 11.0823C-439.456 -2.41836 -451.843 -14.1543 -455.624 -30.7861C-458.079 -41.4866 -452.016 -47.5481 -440.343 -51.3357C-419.861 -57.9856 -400.774 -55.4282 -383.522 -54.7104C-358.247 -53.6566 -333.737 -51.1293 -309.34 -48.4468C-284.943 -45.7644 -260.722 -42.6956 -236.3 -40.0283C-220.186 -38.2438 -203.613 -33.9834 -185.209 -37.2244Z" stroke="#6078F8" stroke-width="0.5"/>
<path fill-rule="evenodd" clip-rule="evenodd" d="M-166.458 -8.94383C-105.679 -17.958 -47.1381 -16.9425 9.56055 -16.2887C82.1427 -15.4738 153.947 -11.6517 218.275 4.20841C256.037 13.5294 299.804 25.4997 315.843 62.8659C321.564 76.1975 319.455 94.0408 319.566 111.387C319.681 131.174 320.977 150.268 322.412 169.193C325.366 208.146 329.15 246.524 333.765 284.326C336.174 304.393 336.713 329.09 346.37 343.195C354.045 354.413 369.082 359.351 380.279 366.311C400.442 378.848 420.658 391.311 440.598 404.138C463.604 418.943 486.527 433.974 507.408 451.495C519.045 461.26 542.069 474.266 538.713 495.479C535.784 513.989 472.329 538.128 460.648 543.018C424.173 558.282 387.993 571.642 351.007 589.6C329.179 600.175 302.62 613.028 280.93 632.907C262.447 649.852 250.212 676.305 239.062 696.774C225.088 722.408 209.661 748.219 196.731 773.921C185.209 796.819 177.915 819.623 169.513 842.117C160.269 866.861 150.849 891.992 138.493 917.146C130.877 932.614 118.064 958.47 102.085 966.153C83.6481 975.001 70.2619 948.624 63.2941 939.591C49.2032 921.212 36.9052 900.895 24.0626 881.219C2.72749 848.546 -18.2059 818.128 -49.177 796.273C-89.5162 767.821 -132.604 742.841 -173.558 715.163C-188.692 704.955 -205.065 695.817 -218.121 683.02C-225.602 675.679 -227.976 665.987 -224.12 651.582C-218.862 631.921 -227.219 611.911 -230.823 595.268C-236.449 569.324 -243.007 544.12 -249.395 518.795C-263.407 463.189 -278.887 407.995 -284.708 346.038C-286.553 326.44 -288.931 304.327 -282.216 279.854C-278.474 266.205 -269.503 257.402 -263.528 244.513C-255.692 227.54 -262.279 211.682 -265.563 201.396C-271.892 181.533 -281.153 164.158 -290.611 147.247C-312.014 108.986 -336.998 74.9934 -364.195 42.8355C-370.578 35.312 -396.26 6.35811 -361.448 -4.7675C-322.981 -17.0649 -287.705 -9.79305 -255.462 -8.16646C-226.436 -6.67405 -198.144 -4.24529 -166.458 -8.94383Z" stroke="#6078F8" stroke-width="0.5"/>
<path fill-rule="evenodd" clip-rule="evenodd" d="M-126.53 33.6289C-71.1217 27.2674 -18.8052 31.4128 31.7667 35.8025C93.1337 41.1302 153.138 50.1732 205.578 70.484C238.513 83.2511 272.552 100.132 287.211 135.109C297.225 158.99 290.085 195.846 291.308 226.172C292.531 256.497 295.265 286.247 300.724 313.62C304.112 330.609 308.233 348.296 320.675 356.491C350.921 376.423 384.219 392.516 414.845 412.04C435.122 424.934 455.133 438.235 473.316 453.83C484.285 463.23 500.737 474.436 501.613 493.668C502.576 514.933 358.562 573.216 343.408 580.63C305.411 599.222 256.594 625.2 224.94 669.766C194.682 712.371 181.284 751.623 168.129 793.552C160.629 817.389 144.41 884.161 116.912 900.796C101.197 910.306 89.0091 892.738 82.1718 885.685C68.6955 871.787 56.9803 855.884 44.8473 840.488C27.1328 818.069 10.9715 792.512 -8.99799 772.686C-22.9065 758.884 -39.8078 748.595 -55.0186 736.348C-76.8255 718.783 -98.3334 700.849 -119.795 682.858C-137.814 667.75 -156.492 653.141 -172.01 635.075C-181.674 623.865 -186.547 612.315 -184.159 592.765C-182.085 575.758 -187.392 560.518 -190.586 546.05C-195.865 522.16 -202.04 498.978 -208.023 475.657C-220.546 426.827 -233.825 378.195 -240.275 324.621C-243.226 300.172 -251.221 262.812 -228.285 227.899C-220.015 215.309 -216.796 209.584 -217.436 198.1C-218.346 181.802 -225.12 169.301 -231.696 157.876C-247.027 131.24 -270.999 113.955 -286.373 87.4494C-292.6 76.6128 -298.314 59.4809 -273.968 50.5663C-245.523 40.1178 -218.951 43.2301 -194.375 42.4467C-182.11 42.0601 -169.949 42.2471 -156.933 40.1888C-146.921 38.5884 -136.328 34.7204 -126.53 33.6289Z" stroke="#6078F8" stroke-width="0.5"/>
<path fill-rule="evenodd" clip-rule="evenodd" d="M-77.2087 89.5124C-28.8069 87.1128 16.4564 93.5243 59.7153 101.292C107.745 109.944 154.036 122.381 193.74 143.875C221.167 158.701 247.608 177.933 259.67 210.301C267.296 230.772 262.502 256.956 262.75 282.37C263.096 320.759 268.869 355.629 295.27 369.66C324.861 385.402 353.531 402.451 381.28 420.808C398.02 431.879 414.515 443.376 429.213 457.009C438.51 465.621 450.279 476.977 452.004 492.328C454.303 512.879 341.781 563.974 326.288 572.155C287.864 592.444 251.747 617.133 214.909 650.99C184.852 678.62 174.351 710.969 165.118 742.367C159.391 761.87 149.338 814.45 127.856 828.402C116.027 836.112 105.348 826.569 98.945 822.267C86.7476 814.062 76.1719 803.755 65.1667 794.078C48.9396 779.76 27.0964 770.162 13.6207 752.737C-16.2529 714.131 -46.9775 676.768 -79.2972 640.716C-97.1164 620.845 -115.301 601.173 -130.466 578.4C-135.909 570.224 -141.483 561.718 -144.217 550.978C-145.981 544.074 -143.84 536.48 -143.845 528.822C-143.896 492.344 -158.056 462.129 -166.762 431.726C-178.338 391.309 -190.293 351.069 -198.404 307.829C-202.669 285.085 -210.964 256.204 -201.137 224.793C-198.168 215.303 -192.3 210.54 -188.499 202.183C-184.11 192.547 -188.449 185.1 -190.697 179.606C-195.792 167.13 -228.041 128.391 -186.38 113.149C-166.522 105.9 -148.437 105.577 -129.945 102.216C-123.248 100.997 -116.621 99.6865 -109.363 96.6019C-97.2045 91.4206 -88.2738 90.0792 -77.2087 89.5124Z" stroke="#6078F8" stroke-width="0.5"/>
<path fill-rule="evenodd" clip-rule="evenodd" d="M-24.5847 150.598C63.6684 154.795 150.955 179.648 206.962 233.881C225.581 251.922 242.337 275.381 243.18 309.91C243.66 330.291 240.82 350.559 249.611 364.898C255.958 375.248 268.429 379.432 278.424 385.385C292.903 394.005 307.228 402.83 321.305 411.983C338.736 423.358 355.914 435.152 371.482 448.888C382.604 458.706 398.96 471.033 399.476 490.855C400.103 514.508 316.595 555.454 302.855 563.673C269.553 583.594 240.064 605.144 209.8 637.145C200.974 646.463 190.116 654.546 182.338 664.841C174.403 675.362 170.353 687.171 166.91 697.707C162.389 711.51 156.079 747.82 141.669 757.449C133.711 762.764 124.702 756.951 119.189 754.98C108.834 751.299 99.4264 746.209 89.4939 741.906C72.6282 734.622 48.8258 736.104 35.3162 724.576C-1.02599 693.595 -21.0182 641.325 -47.6849 599.915C-63.5198 575.273 -80.036 551.173 -93.5606 524.215C-97.8376 515.683 -102.231 506.88 -104.448 496.488C-105.997 489.236 -103.647 480.449 -104.514 473.032C-107.818 444.566 -118.468 420.289 -127.071 395.964C-138.218 364.358 -149.773 333.103 -160.052 300.741C-166.496 280.458 -177.775 258.071 -176.011 231.557C-174.724 212.195 -165.798 213.32 -151.916 205.556C-144.835 201.6 -140.705 195.395 -134.322 189.592C-125.208 181.307 -115.586 177.821 -106.777 174.817C-94.6162 170.658 -81.8989 169.42 -69.1589 162.566C-64.6712 160.156 -61.073 155.567 -57.2577 153.388C-46.1486 147.036 -32.8849 150.203 -24.5847 150.598Z" stroke="#6078F8" stroke-width="0.5"/>
<path fill-rule="evenodd" clip-rule="evenodd" d="M22.189 212.405C87.8371 223.196 149.624 249.105 191.637 294.323C206.252 310.059 218.443 328.994 224.099 353.48C226.686 364.603 227.02 374.939 234.428 381.48C251.621 396.652 271.62 408.474 289.933 422.255C303.041 432.115 315.976 442.318 327.111 454.553C334.559 462.729 344.794 473.586 343.749 489.11C342.204 511.702 284.303 545.865 269.635 556.38C245.313 573.821 219.01 593.807 200.437 621.738C194.76 630.281 190.408 638.366 184.027 646.599C178.56 653.687 172.9 659.734 168.817 667.435C163.749 676.98 160.54 695.56 151.937 701.157C146.066 704.983 140.902 701.202 136.255 700.184C128.717 698.533 120.627 697.824 112.066 698.063C103.034 698.339 92.769 701.753 84.1911 701.077C70.2755 699.968 59.7938 692.435 50.4112 684.793C12.9822 654.292 -13.6439 609.477 -38.3237 565.178C-51.1773 542.111 -63.7266 518.454 -72.8454 491.871C-75.6122 483.797 -79.1167 475.101 -78.7902 464.594C-78.5939 458.047 -76.5747 451.278 -77.6108 445.395C-86.4734 395.153 -113.248 357.478 -129.805 312.969C-134.114 301.383 -159.932 239.567 -117.152 235.729C-91.1606 233.394 -70.5813 239.428 -41.6557 230.865C-32.8539 228.269 -26.2195 225.592 -17.3814 217.911C-11.5095 212.789 -16.4658 213.785 -7.91708 210.383C2.39746 206.325 14.5398 211.149 22.189 212.405Z" stroke="#6078F8" stroke-width="0.5"/>
<path fill-rule="evenodd" clip-rule="evenodd" d="M56.0803 265.485C125.583 287.204 182.09 331.318 220.534 393.09C230.229 408.657 245.148 418.894 257.824 431.12C270.152 442.982 295.618 459.693 289.599 486.799C285.238 506.451 253.572 530.076 238.271 543.617C218.777 560.868 199.17 579.119 188.955 602.933C182.974 616.881 178.622 631.243 172.959 645.272C170.257 651.974 166.983 662.946 161.452 666.888C152.32 673.387 138.526 668.066 130.016 667.728C102.819 666.644 82.2508 655.332 64.1946 640.564C30.8467 613.283 4.22129 577.347 -19.0882 538.976C-29.8109 521.32 -40.451 503.132 -47.3969 481.911C-51.33 469.906 -49.0898 454.703 -52.0307 442.233C-61.4882 402.066 -80.2356 369.515 -91.4902 330.676C-94.7453 319.432 -108.615 279.544 -78.0425 270.513C-48.4453 261.772 -30.5092 280.184 -1.3187 273.051C2.00497 272.22 6.047 271.277 9.76076 268.588C11.975 266.975 14.1801 262.278 15.5448 261.445C30.1867 252.244 47.2615 262.724 56.0803 265.485Z" stroke="#6078F8" stroke-width="0.5"/>
<path fill-rule="evenodd" clip-rule="evenodd" d="M80.4474 306.664C113.103 321.489 142.078 342.072 169.864 363.84C185.052 375.738 202.99 387.264 211.827 406.346C217.246 418.079 222.807 429.006 229.833 439.324C237.39 450.427 251.71 465.647 244.588 486.885C239.266 502.755 215.862 525.284 203.697 539.969C190.359 556.079 182.357 569.554 178.987 586.084C176.859 596.488 172.778 637.202 164.553 643.236C156.721 648.985 143.657 640.26 136.865 637.9C115.377 630.465 96.8432 618.929 80.2094 604.916C54.4404 583.222 32.2697 556.885 13.5511 527.321C5.82716 515.08 -2.1495 502.421 -6.47445 486.958C-9.38231 476.538 -8.10336 463.274 -10.8333 452.727C-18.633 422.5 -31.3052 396.003 -38.9587 365.457C-41.4076 355.645 -51.6699 326.494 -31.0586 311.068C-13.855 298.183 4.0425 304.517 19.6653 299.196C46.2813 290.096 62.5058 298.511 80.4474 306.664Z" stroke="#6078F8" stroke-width="0.5"/>
<path fill-rule="evenodd" clip-rule="evenodd" d="M89.2116 330.331C114.403 343.052 137.98 358.787 159.811 376.301C173.9 387.604 189.002 399.235 197.949 416.353C202.445 424.949 202.79 436.816 205.297 447.111C207.883 457.705 212.549 470.97 205.932 485.101C199.713 498.38 185.622 513.69 177.226 528.976C169.782 542.542 168.339 553.478 166.684 565.381C165.616 572.981 163.471 607.886 157.69 611.294C151.497 614.943 142.367 606.845 136.851 603.576C121.626 594.604 107.472 584.212 94.4491 572.445C76.7328 556.314 60.4359 538.139 47.6812 516.54C38.6272 501.224 38.1551 481.823 32.8947 463.615C26.1024 439.999 16.8936 418.219 11.0838 393.696C8.18792 381.478 2.96698 364.547 11.4766 345.949C14.7329 338.818 25.4068 322.619 31.8774 318.091C39.6536 312.647 49.6595 315.772 54.7091 316.844C67.3434 319.549 78.5043 324.924 89.2116 330.331Z" stroke="#6078F8" stroke-width="0.5"/>
</g>
<defs>
<clipPath id="clip0_503_701">
<rect width="1920" height="983" fill="white"/>
</clipPath>
</defs>
</svg>
